<mxfile host="app.diagrams.net" modified="2023-10-15T20:06:49.047Z" agent="Mozilla/5.0 (Windows NT 10.0; Win64; x64) AppleWebKit/537.36 (KHTML, like Gecko) Chrome/118.0.0.0 Safari/537.36 Edg/118.0.2088.46" etag="gRfrCRqqX9h4VzuF98Za" version="21.6.5" type="device">
  <diagram name="Side-1" id="MaaageGl1JTG04H_9l-0">
    <mxGraphModel dx="1664" dy="2321" grid="1" gridSize="10" guides="1" tooltips="1" connect="1" arrows="1" fold="1" page="1" pageScale="1" pageWidth="827" pageHeight="1169" math="0" shadow="0">
      <root>
        <mxCell id="0" />
        <mxCell id="1" parent="0" />
        <mxCell id="rkqLrL7HtzT2ZyTlWoy1-9" style="edgeStyle=orthogonalEdgeStyle;rounded=0;orthogonalLoop=1;jettySize=auto;html=1;" edge="1" parent="1" source="rkqLrL7HtzT2ZyTlWoy1-2" target="rkqLrL7HtzT2ZyTlWoy1-6">
          <mxGeometry relative="1" as="geometry" />
        </mxCell>
        <mxCell id="rkqLrL7HtzT2ZyTlWoy1-2" value="" style="shadow=0;dashed=0;html=1;strokeColor=none;fillColor=#4495D1;labelPosition=center;verticalLabelPosition=bottom;verticalAlign=top;align=center;outlineConnect=0;shape=mxgraph.veeam.script;" vertex="1" parent="1">
          <mxGeometry x="140" y="600" width="44.8" height="44.8" as="geometry" />
        </mxCell>
        <mxCell id="rkqLrL7HtzT2ZyTlWoy1-7" style="edgeStyle=orthogonalEdgeStyle;rounded=0;orthogonalLoop=1;jettySize=auto;html=1;" edge="1" parent="1" target="rkqLrL7HtzT2ZyTlWoy1-2">
          <mxGeometry relative="1" as="geometry">
            <mxPoint x="230" y="512.3529411764703" as="sourcePoint" />
          </mxGeometry>
        </mxCell>
        <mxCell id="rkqLrL7HtzT2ZyTlWoy1-8" style="edgeStyle=orthogonalEdgeStyle;rounded=0;orthogonalLoop=1;jettySize=auto;html=1;" edge="1" parent="1" target="rkqLrL7HtzT2ZyTlWoy1-6">
          <mxGeometry relative="1" as="geometry">
            <mxPoint x="274.79999999999995" y="512.3529411764703" as="sourcePoint" />
          </mxGeometry>
        </mxCell>
        <mxCell id="rkqLrL7HtzT2ZyTlWoy1-6" value="" style="shadow=0;dashed=0;html=1;strokeColor=none;fillColor=#4495D1;labelPosition=center;verticalLabelPosition=bottom;verticalAlign=top;align=center;outlineConnect=0;shape=mxgraph.veeam.script;" vertex="1" parent="1">
          <mxGeometry x="330" y="600" width="44.8" height="44.8" as="geometry" />
        </mxCell>
        <mxCell id="rkqLrL7HtzT2ZyTlWoy1-12" value="[1] Invoke-PS" style="text;html=1;strokeColor=none;fillColor=none;align=center;verticalAlign=middle;whiteSpace=wrap;rounded=0;fontStyle=1" vertex="1" parent="1">
          <mxGeometry x="123.4" y="486" width="88" height="30" as="geometry" />
        </mxCell>
        <mxCell id="rkqLrL7HtzT2ZyTlWoy1-13" value="" style="rounded=0;whiteSpace=wrap;html=1;dashed=1;dashPattern=1 1;fillColor=none;" vertex="1" parent="1">
          <mxGeometry x="125.4" y="474" width="82.4" height="70" as="geometry" />
        </mxCell>
        <mxCell id="rkqLrL7HtzT2ZyTlWoy1-14" value="&lt;b&gt;[2]Outputs file&lt;/b&gt;" style="text;html=1;strokeColor=none;fillColor=none;align=center;verticalAlign=middle;whiteSpace=wrap;rounded=0;" vertex="1" parent="1">
          <mxGeometry x="209.8" y="597" width="85.2" height="30" as="geometry" />
        </mxCell>
        <mxCell id="rkqLrL7HtzT2ZyTlWoy1-15" value="" style="rounded=0;whiteSpace=wrap;html=1;dashed=1;dashPattern=1 1;fillColor=none;" vertex="1" parent="1">
          <mxGeometry x="211.4" y="585" width="82.4" height="70" as="geometry" />
        </mxCell>
        <mxCell id="rkqLrL7HtzT2ZyTlWoy1-16" value="" style="rounded=0;whiteSpace=wrap;html=1;dashed=1;dashPattern=1 1;fillColor=none;" vertex="1" parent="1">
          <mxGeometry x="308.2" y="478" width="82.4" height="70" as="geometry" />
        </mxCell>
        <mxCell id="rkqLrL7HtzT2ZyTlWoy1-18" value="&lt;b&gt;[3] TF loads file&lt;/b&gt;" style="text;html=1;strokeColor=none;fillColor=none;align=center;verticalAlign=middle;whiteSpace=wrap;rounded=0;" vertex="1" parent="1">
          <mxGeometry x="310" y="482" width="80" height="30" as="geometry" />
        </mxCell>
        <mxCell id="rkqLrL7HtzT2ZyTlWoy1-19" value="" style="endArrow=none;dashed=1;html=1;dashPattern=1 3;strokeWidth=2;rounded=0;" edge="1" parent="1" target="rkqLrL7HtzT2ZyTlWoy1-2">
          <mxGeometry width="50" height="50" relative="1" as="geometry">
            <mxPoint x="110" y="680" as="sourcePoint" />
            <mxPoint x="80" y="710" as="targetPoint" />
          </mxGeometry>
        </mxCell>
        <mxCell id="rkqLrL7HtzT2ZyTlWoy1-20" value="Zoom in" style="text;html=1;strokeColor=none;fillColor=none;align=center;verticalAlign=middle;whiteSpace=wrap;rounded=0;rotation=313;fontStyle=1" vertex="1" parent="1">
          <mxGeometry x="90" y="640" width="60" height="30" as="geometry" />
        </mxCell>
        <mxCell id="rkqLrL7HtzT2ZyTlWoy1-21" value="&lt;b&gt;Script params:&lt;/b&gt;&lt;br&gt;&lt;div style=&quot;text-align: left;&quot;&gt;&lt;b&gt;&lt;br&gt;&lt;/b&gt;&lt;/div&gt;&lt;div style=&quot;text-align: left;&quot;&gt;&lt;b&gt;1. Location&lt;/b&gt;&lt;/div&gt;&lt;div style=&quot;text-align: left;&quot;&gt;&lt;b&gt;2. OS&lt;/b&gt;&lt;/div&gt;&lt;div style=&quot;text-align: left;&quot;&gt;&lt;b&gt;3. VMPattern&lt;/b&gt;&lt;/div&gt;&lt;div style=&quot;text-align: left;&quot;&gt;&lt;b&gt;4. OSPattern&lt;/b&gt;&lt;/div&gt;&lt;div style=&quot;text-align: left;&quot;&gt;&lt;b&gt;5. OutputFileName&lt;/b&gt;&lt;/div&gt;&lt;div style=&quot;text-align: left;&quot;&gt;&lt;br&gt;&lt;/div&gt;" style="text;html=1;strokeColor=none;fillColor=none;align=center;verticalAlign=middle;whiteSpace=wrap;rounded=0;" vertex="1" parent="1">
          <mxGeometry x="20" y="690" width="180" height="130" as="geometry" />
        </mxCell>
        <mxCell id="rkqLrL7HtzT2ZyTlWoy1-26" value="" style="edgeStyle=orthogonalEdgeStyle;rounded=0;orthogonalLoop=1;jettySize=auto;html=1;" edge="1" parent="1" source="rkqLrL7HtzT2ZyTlWoy1-22" target="rkqLrL7HtzT2ZyTlWoy1-25">
          <mxGeometry relative="1" as="geometry" />
        </mxCell>
        <mxCell id="rkqLrL7HtzT2ZyTlWoy1-22" value="" style="whiteSpace=wrap;html=1;aspect=fixed;fillColor=none;dashed=1;dashPattern=1 1;" vertex="1" parent="1">
          <mxGeometry x="45" y="684" width="130" height="130" as="geometry" />
        </mxCell>
        <mxCell id="rkqLrL7HtzT2ZyTlWoy1-24" value="&lt;b&gt;Script actions&lt;/b&gt;&lt;br&gt;&lt;br&gt;&lt;div style=&quot;text-align: left;&quot;&gt;&lt;b&gt;1. Execute Get-AzVMSku&lt;/b&gt;&lt;/div&gt;&lt;div style=&quot;text-align: left;&quot;&gt;&lt;b&gt;2. Convert to JSON depth 3&lt;/b&gt;&lt;/div&gt;&lt;div style=&quot;text-align: left;&quot;&gt;&lt;b&gt;3. Output file to local location&lt;/b&gt;&lt;/div&gt;" style="text;html=1;strokeColor=none;fillColor=none;align=center;verticalAlign=middle;whiteSpace=wrap;rounded=0;" vertex="1" parent="1">
          <mxGeometry x="24.5" y="893" width="175" height="30" as="geometry" />
        </mxCell>
        <mxCell id="rkqLrL7HtzT2ZyTlWoy1-25" value="" style="rounded=0;whiteSpace=wrap;html=1;fillColor=none;dashed=1;dashPattern=1 1;" vertex="1" parent="1">
          <mxGeometry x="10" y="863" width="200" height="90" as="geometry" />
        </mxCell>
        <mxCell id="rkqLrL7HtzT2ZyTlWoy1-27" value="Zoom in" style="text;html=1;strokeColor=none;fillColor=none;align=center;verticalAlign=middle;whiteSpace=wrap;rounded=0;rotation=45;fontStyle=1" vertex="1" parent="1">
          <mxGeometry x="369.8" y="642" width="60" height="30" as="geometry" />
        </mxCell>
        <mxCell id="rkqLrL7HtzT2ZyTlWoy1-29" value="" style="endArrow=none;dashed=1;html=1;dashPattern=1 3;strokeWidth=2;rounded=0;" edge="1" parent="1">
          <mxGeometry width="50" height="50" relative="1" as="geometry">
            <mxPoint x="407" y="679.8" as="sourcePoint" />
            <mxPoint x="374.8" y="644.8" as="targetPoint" />
          </mxGeometry>
        </mxCell>
        <mxCell id="rkqLrL7HtzT2ZyTlWoy1-31" value="" style="whiteSpace=wrap;html=1;aspect=fixed;fillColor=none;dashed=1;dashPattern=1 1;" vertex="1" parent="1">
          <mxGeometry x="320" y="684" width="150.8" height="150.8" as="geometry" />
        </mxCell>
        <mxCell id="rkqLrL7HtzT2ZyTlWoy1-34" value="&lt;b&gt;JSON output:&lt;/b&gt;&lt;br&gt;&lt;div style=&quot;text-align: left;&quot;&gt;&lt;b&gt;&lt;br&gt;&lt;/b&gt;&lt;/div&gt;&lt;div style=&quot;text-align: left;&quot;&gt;&lt;b&gt;1. SKUs&lt;/b&gt;&lt;/div&gt;&lt;div style=&quot;text-align: left;&quot;&gt;&lt;b&gt;2. Versions&lt;/b&gt;&lt;/div&gt;&lt;div style=&quot;text-align: left;&quot;&gt;&lt;b&gt;3. Offer&lt;/b&gt;&lt;/div&gt;&lt;div style=&quot;text-align: left;&quot;&gt;&lt;b&gt;4. Publisher&lt;/b&gt;&lt;/div&gt;&lt;div style=&quot;text-align: left;&quot;&gt;&lt;b&gt;5. VMSizes&lt;/b&gt;&lt;/div&gt;&lt;div style=&quot;text-align: left;&quot;&gt;&lt;b&gt;6. CoresAvailable&lt;/b&gt;&lt;/div&gt;&lt;div style=&quot;text-align: left;&quot;&gt;&lt;b&gt;7. CoresLimit&lt;/b&gt;&lt;/div&gt;&lt;div style=&quot;text-align: left;&quot;&gt;&lt;br&gt;&lt;/div&gt;" style="text;html=1;strokeColor=none;fillColor=none;align=center;verticalAlign=middle;whiteSpace=wrap;rounded=0;" vertex="1" parent="1">
          <mxGeometry x="308.2" y="700.4" width="180" height="130" as="geometry" />
        </mxCell>
        <mxCell id="rkqLrL7HtzT2ZyTlWoy1-39" value="" style="endArrow=none;dashed=1;html=1;dashPattern=1 3;strokeWidth=2;rounded=0;" edge="1" parent="1">
          <mxGeometry width="50" height="50" relative="1" as="geometry">
            <mxPoint x="390.6" y="478" as="sourcePoint" />
            <mxPoint x="420" y="450" as="targetPoint" />
          </mxGeometry>
        </mxCell>
        <mxCell id="rkqLrL7HtzT2ZyTlWoy1-40" value="Zoom in" style="text;html=1;strokeColor=none;fillColor=none;align=center;verticalAlign=middle;whiteSpace=wrap;rounded=0;rotation=-40;fontStyle=1" vertex="1" parent="1">
          <mxGeometry x="369" y="444" width="61" height="28" as="geometry" />
        </mxCell>
        <mxCell id="rkqLrL7HtzT2ZyTlWoy1-41" value="&lt;b&gt;TF commands:&lt;/b&gt;&lt;br&gt;&lt;br&gt;&lt;div style=&quot;text-align: left;&quot;&gt;&lt;b&gt;1. Pull in content of JSON file&lt;/b&gt;&lt;/div&gt;&lt;div style=&quot;text-align: left;&quot;&gt;&lt;b&gt;2. Decode values&lt;/b&gt;&lt;/div&gt;&lt;div style=&quot;text-align: left;&quot;&gt;&lt;b&gt;3. Join values (in case of multiple files)&lt;/b&gt;&lt;/div&gt;&lt;div style=&quot;text-align: left;&quot;&gt;&lt;b&gt;4. Transform values&lt;/b&gt;&lt;/div&gt;&lt;div style=&quot;text-align: left;&quot;&gt;&lt;b&gt;5. Parse values to local variable&amp;nbsp;&lt;/b&gt;&lt;/div&gt;" style="text;html=1;strokeColor=none;fillColor=none;align=center;verticalAlign=middle;whiteSpace=wrap;rounded=0;" vertex="1" parent="1">
          <mxGeometry x="324" y="345" width="240" height="30" as="geometry" />
        </mxCell>
        <mxCell id="rkqLrL7HtzT2ZyTlWoy1-42" value="&lt;span style=&quot;white-space: pre;&quot;&gt;&#x9;&lt;/span&gt;" style="rounded=0;whiteSpace=wrap;html=1;fillColor=none;dashed=1;dashPattern=1 1;" vertex="1" parent="1">
          <mxGeometry x="324" y="295" width="240" height="140" as="geometry" />
        </mxCell>
        <mxCell id="rkqLrL7HtzT2ZyTlWoy1-43" value="" style="endArrow=none;dashed=1;html=1;dashPattern=1 3;strokeWidth=2;rounded=0;entryX=0;entryY=0;entryDx=0;entryDy=0;" edge="1" parent="1" target="rkqLrL7HtzT2ZyTlWoy1-13">
          <mxGeometry width="50" height="50" relative="1" as="geometry">
            <mxPoint x="90" y="450" as="sourcePoint" />
            <mxPoint x="90" y="370" as="targetPoint" />
          </mxGeometry>
        </mxCell>
        <mxCell id="rkqLrL7HtzT2ZyTlWoy1-44" value="Zoom in" style="text;html=1;strokeColor=none;fillColor=none;align=center;verticalAlign=middle;whiteSpace=wrap;rounded=0;rotation=40;fontStyle=1" vertex="1" parent="1">
          <mxGeometry x="84" y="441" width="61" height="28" as="geometry" />
        </mxCell>
        <mxCell id="rkqLrL7HtzT2ZyTlWoy1-45" value="&lt;b&gt;TF commands:&lt;/b&gt;&lt;br&gt;&lt;br&gt;&lt;div style=&quot;text-align: left;&quot;&gt;&lt;b&gt;1. Parse required params to script&lt;/b&gt;&lt;/div&gt;&lt;div style=&quot;text-align: left;&quot;&gt;&lt;b&gt;2. TF initiates pwsh.exe&amp;nbsp;&lt;/b&gt;&lt;/div&gt;&lt;div style=&quot;text-align: left;&quot;&gt;&lt;b&gt;3. Returns job status&lt;/b&gt;&lt;/div&gt;" style="text;html=1;strokeColor=none;fillColor=none;align=center;verticalAlign=middle;whiteSpace=wrap;rounded=0;" vertex="1" parent="1">
          <mxGeometry x="-33" y="355" width="200" height="90" as="geometry" />
        </mxCell>
        <mxCell id="rkqLrL7HtzT2ZyTlWoy1-46" value="" style="rounded=0;whiteSpace=wrap;html=1;fillColor=none;dashed=1;dashPattern=1 1;" vertex="1" parent="1">
          <mxGeometry x="-53" y="355" width="240" height="90" as="geometry" />
        </mxCell>
        <mxCell id="rkqLrL7HtzT2ZyTlWoy1-47" value="" style="shape=image;verticalLabelPosition=bottom;labelBackgroundColor=default;verticalAlign=top;aspect=fixed;imageAspect=0;image=data:image/png,iVBORw0KGgoAAAANSUhEUgAAAsgAAALICAYAAABiqwZ2AAAgAElEQVR4Ae3dvc4s13WncQaEcQAfjGlD8lCAjiHJhGDSHpsQpLFACgN5GAgKxgkDQZET2+kk8hXYzoeODYwzZzbgfO6AdzBXwKvoQQ+5z6m3T/db1b1Xrdofv0Do96tqV/33s/d6qrhEvvPOO++c/E8GGMAABjCAAQxgAAMYeM3A6y+IsocFDGAAAxjAAAYwgAEMeFLwgIABDGAAAxjAAAYwgIEnDDz5xhODp0YMYAADGMAABjCAgdkZIMiemDCAAQxgAAMYwAAGMLBgQBiLMGZ/WnL/3hhgAAMYwAAGMIABcugBAQMYwAAGMIABDGAAA08YePKNJwZPjRjAAAYwgAEMYAADszNAkD0xYQADGMAABjCAAQxgYMGAMBZhzP605P69McAABjCAAQxgAAPk0AMCBjCAAQxgAAMYwAAGnjDw5BtPDJ4aMYABDGAAAxjAAAZmZ4Age2LCAAYwgAEMYAADGMDAggFhLMKY/WnJ/XtjgAEMYAADGMAABsihBwQMYAADGMAABjCAAQw8YeDJN54YPDViAAMYwAAGMIABDMzOAEH2xIQBDGAAAxjAAAYwgIEFA8JYhDH705L798YAAxjAAAYwgAEMkEMPCBjAAAYwgAEMYAADGHjCwJNvPDF4asQABjCAAQxgAAMYmJ0BguyJCQMYwAAGMIABDGAAAwsGhLEIY/anJffvjQEGMIABDGAAAxgghx4QMIABDGAAAxjAAAYw8ISBJ994YvDUiAEMYAADGMAABjAwOwME2RMTBjCAAQxgAAMYwAAGFgwIYxHG7E9L7t8bAwxgAAMYwAAGMEAOPSBgAAMYwAAGMIABDGDgCQNPvvHE4KkRAxjAAAYwgAEMYGB2BgiyJyYMYAADGMAABjCAAQwsGBDGIozZn5bcvzcGGMAABjCAAQxggBx6QMAABjCAAQxgAAMYwMATBp5844nBUyMGMIABDGAAAxjAwOwMEGRPTBjAAAYwgAEMYAADGFgwIIxFGLM/Lbl/bwwwgAEMYAADGMAAOfSAgAEMYAADGMAABjCAgScMPPnGE4OnRgxgAAMYwAAGMICB2RkgyJ6YMIABDGAAAxjAAAYwsGBAGIswZn9acv/eGGAAAxjAAAYwgAFy6AEBAxjAAAYwgAEMYAADTxh48o0nBk+NGMAABjCAAQxgAAOzM0CQPTFhAAMYwAAGMIABDGBgwYAwFmHM/rTk/r0xwAAGMIABDGAAA+TQAwIGMIABDGAAAxjAAAaeMPDkG08MnhoxgAEMYAADGMAABmZngCB7YsIABjCAAQxgAAMYwMCCAWEswpj9acn9e2OAAQxgAAMYwAAGyKEHBAxgAAMYwAAGMIABDDxh4Mk3nhg8NWIAAxjAAAYwgAEMzM4AQfbEhAEMYAADGMAABjCAgQUDwliEMfvTkvv3xgADGMAABjCAAQyQQw8IGMAABjCAAQxgAAMYeMLAk288MXhqxAAGMIABDGAAAxiYnQGC7IkJAxjAAAYwgAEMYAADCwaEsQhj9qcl9++NAQYwgAEMYAADGCCHHhAwgAEMYAADGMAABjDwhIEn33hi8NSIAQxgAAMYwAAGMDA7AwTZExMGMIABDGAAAxjAAAYWDAhjEcbsT0vu3xsDDGAAAxjAAAYwQA49IGAAAxjAAAYwgAEMYOAJA0++8cTgqREDGMAABjCAAQxgYHYGCLInJgxgAAMYwAAGMIABDCwYEMYijJSnpU8//OL0kx/+w+nli1cp42Xfn/GsKQxgAAMYwAAGOmfABGZP4FmQ/+qzr06ff/rl6Q+/8yuS7B9jYQADGMAABjCAgbYYIMhHCfJZkosov/r2Ly2MthaG+TAfGMAABjCAgXkZIMhHC3IR5U8/+idtF/MuRJuwuccABjCAAQy0wwBBbkWQiyjrT8ZkNpPGwxwGMIABDGDgCQNPvvHkkvDkUnqQixBf+9SfjEsbFQYwgAEMYAADhzFw2MDTyvgWQS7STJTxaXPEAAYwgAEMYCCdgfQBpxXjAvc9glxEWX8yTgs/PrGAAQxgAAMY2J2B3QeYXogvIX5EkIkyTi858j0mMIABDGAAA7sxsNuJifGNfuYaQT6LsrYLzNoQMYABDGAAAxjYlYFdT06Sr0hyrSCXt8lEGbs2RwxgAAMYwAAGdmFgl5MS4ytiXACOEuQiyvqTMVzY8okFDGAAAxjAQAgDISchxM8I8SWo0YJMlDF8yZjvMYEBDGAAAxioYqDqYGJ8hxgXUPcSZP3JWC6M+cQCBjCAAQxgoIqBqoMJcmOCXN4m60/GtY0RAxjAAAYwgIGHGXj4QHL8gByfQd3zDXIR5PKpPxnfNkcMYAADGMAABu5m4O4DiPGDYlzgzBRkoozvwp1PLGAAAxjAAAY2M7D5D4lxpRgXKI8Q5LMoa7vAemHQJxYwgAEMYAADzzLw7C9JcZAULyE8SpDL22SijPklj77GAwYwgAEMYOAtBt76ASneQYqX4B0tyEWU9Sdjf8mlr/GAAQxgAAMYeM3A6y+I8c5iXKBrRZCJMvYLkz6xgAEMYAADGHjCwJNvSHKCJLcmyPqTrQGbIgYwgAEMYAADTxh48g1BnlSQy9tk/cnWgw0SAxjAAAYwgIEEIRTy04XW4hvkIsjlU3/y0znDsDwwgAEMYAADUzEw1c028Ya8B0EmytaFQoABDGAAAxiYmAGTnz35PQnyWZS1XVgj2WvEeJjDAAYwgIGDGTAB2RPQmyCXt8lE2VrJXivGwxwGMIABDBzEgOCzg+9VkIso60+2ZrLXjPEwhwEMYAADyQwIPDnwU++CTJStmew1YzzMYQADGMBAMgMCTw58GEHWn2ztZK8d42EOAxjAAAaSGBB0UtCv/w0ao7xBLm+SibI1lL2GjIc5DGAAAxjYmQEB7xzwazEu44woyEWW9SdbT4Vzn1jAAAYwgIGOGTB52ZM3siATZespez0ZD3MYwAAGMLADA0LdIdS33hovx5hBkLVdWFdL5n2NBwxgAAMY6IwBE5Y9YbMIcnmb7N+fbI1lrzHjYQ4DGMAABioZEGBlgM++Lb527tkEuYiy/mRr7dp68DNcYAADGMBAgwyYlOxJmVWQibK1lr3WjIc5DGAAAxh4kAHBPRjc3W+OyzizC7L+ZGuurAWfWMAABjCAgUYZMDHZE0OQvzqVt8n6k62/7PVnPMxhAAMYwMAGBoS0IaSH3xZfOzdBfiPIRZT/4k//5fTyxavQnK9l72fWOwYwgAEMYAADGxgQ0oaQQsWNIL8tyEWU/R/5rMfs9Wg8zGEAAxjAwBUGhHIllFAhvjw/Qb4tyKU/+cNXf7vrHFzOie/tAxjAAAYwgAEMLBgQxiKMFCkjyM8LcnmbrD/Z2sxem8bDHAYwgAEMfMOAILIXA0HeJshFlPUnW6PZa9R4mMMABjAwPQPTB5Dy1ni50AjyfYJcRFl/srW6XEe+xgMGMIABDOzIgHB3DPeqfBPkxwRZf7K1mr1WjYc5DGAAA9MyMO2NX5XXjIVAkB8X5PI2WX+ydZuxVo2BMwxgAAPTMjDtjRPkz+pFtQjrUZ/6k61fxQsDGMAABjCwAwNC3SHUZ+XbG+R4MdefbB1nr2PjYQ4DGMDA0AwMfXPPiupRYBPkeEHWn2wdH7WejYs9DGAAA0MyMORNNSnGZQER5H0EubR56E+2psta84kFDGAAAxh4kAHBPRjcwxJOkPcV5CLK+pOt7ey1bTzMYQADGBiGgWFu5GFhzYaZIOcIchFl/cnWePYaNx7mMIABDHTPQPc30I0Yl8VCkHMFWX+yNV7Wnk8sYAADGMDARgYEtTGoMBEnyPmCXN4m60+23rPXu/EwhwEMYKBLBrq86DBZPQJagnycIBdR1p9s3R+x9o2JOwxgAAPdMNDNhXYtxcsFQZCPF+QiyvqTrf/l2vQ1HjCAAQxg4BsGBJG9GAhyO4KsP9n6z17/xsMcBjCAgS4Y6OIih3l7fF4UBLktQS5vk/Un2wsULQxgAAMYwMA3DAgiezEQ5DYFuYiy/mR7QvaeYDzMYQADGGiOgeYuaKi3xdeAJ8htC3IRZf3J9oZr69fPcIEBDGBgCgamuMmmpJsg9yHI+pPtDYogBjCAAQxMy8C0N36YNBPkfgS5vE3Wn2yfUCQxgAEMYGAqBqa62cOkeLmoCHJ/glxEWX+y/WK5ln2NBwxgAAPDMjDsjTUhw9cWDkHuV5CLKOtPtm9cW9t+hgsMYAADwzAwzI00K8SXi4Ug9y/I+pPtG5fr2veYwAAGMDAUA0PdTBeSTJDHEOTyNll/sj1EUcQABjCAgeEYGO6GmpdkgjyWIBdR1p9sL1EgMYABDGBgGAaGuZHmxbgsGoI8piAXUdafbE8pa90nFjCAAQx0y0C3F96NEF8uDoI8tiDrT7anXK5532MCAxjAQHcMdHfB3YpxWRwEeXxBLm+T9SfbX8q694kFDGAAA10x0NXFdi/H58VBkOcR5CLK+pPtMwojBjCAAQx0xUBXF0uQP5tPLotkjvCpP9l+o0BiAAMYwEAXDHRxkUOIcVkQ3iDPLfnntos/+/7fDcV0Ydun/RQDGMAABgZhwERmTyRBnluQy5tw/cn2nuy9x3iYwwAGMLCZgc1/6I3XOzFZEWSCXCT5/PmLH/376eWLV9ZX0Pqy+cfsU3KUIwYwMDkDAMgGgCAT5KUgl6/1J9uLsvci42EOAxjAwE0Gbv7CG62d3mgRZIJcpPjyU3+y/UixwgAGMICBJhho4iKmknGCTJAvxfjye/3J9iUFEgMYwAAGDmXg0MGnEuMCOkEmyJdCfOt7/cn2p7Jv+MQCBjCAgVQGUgebUogvgSbIBPmWEN/6uf5k+9TlPuJ7TGAAAxjYlYFdT06Ir/QxE2SCfEuEn/u5/mR7lWKIAQxgAANpDKQNRJa/kWWCTJCfE+G13+lPtmcpkBjAAAYwsDsDuw9AjC/eIhNkgrwmwVt+rz/Z3qVAYgADGMDAbgzsdmJifCHGBWKCTJC3CPDWv9GfbA8re4tPLGAAAxgIYyDsRIT4hhBfwkqQCfJW+d36d/qT7WOX+4zvMYEBDGCgioGqg0nxRileQkqQCfJW8b337/Qn28+We42v8YABDGDgYQYePpAcPyDHZ1AJMkG+V3zv/Xv9yfY1RREDGMAABqoYqDqYJD8gyQSZIN8rvI/+vf5k+5sCiQEMYAADDzHw0EHE+AExLoASZIL8qPA+cpz+ZHtc2Xt8YgEDGMDAZgY2/yEprpDiJZAEmSA/Irq1x+hPttct9yFf4wEDGMDAsww8+0tSHCTFSwgJMkGuld2a4/Un2/OW+5Gv8YABDGDgKgNXf0iMdxDjAiBBJsg1ght1rP5ke1/Zk3xiAQMYwMBbDLz1A3K8oxyfASTIBDlKcmvPc267sCnaAzGAAQxgAANvMfDWDxRMgnyqFS/H9/MQYFO0B2IAAxjAAAbeYuCtHxBkgkyQP+tHcGsfRmyK9kAMYAADGMDAWwy89QOCTJAJMkG2D+y8DyhGag8GMICBphlo+uKGLNJ6kOd5O1v7djfjeBu0PRADGMAABjDwFgNv/WBIKW1p4gkyQc4Q361jtLQ2XIv9GAMYwAAGGmHARGRPBEEmyFvlNePvsvk3nj0XAxjAAAY6YMAkZU8SQSbIGeK7dYxs/o1nz8UABjCAgQ4YMEnZk0SQCfJWec34u2z+jWfPxQAGMICBDhgwSdmTRJAJcob4bh0jm3/j2XMxgAEMYKADBkxS9iQRZIK8VV4z/i6bf+PZczGAAQxgoAMGTFL2JBFkgpwhvlvHiOL/04/+6fTyxSv/Fhz//mQMYAADwQx897t/efrWt/5crsG5rtQ/grwSUDiQBJkgb5XXjL+L4v98rZ9/+uXpD7/zq/A1E3WNzmO/xwAGemLgvff+5PTxx/94+vnP/+P0/vuf2VsJ8tgLmCAT5Azx3TpGVLFYjkeUx97DophxHpxg4DoDL178/msxPssxQb6e0878HDLo1E9BBJkgL2Xy6K+jNphr96Htwv4axZfzYGkGBt5997dP3/ver08/+9m//n8pLnJMkA/h/5BBCfJnJPGaUPlZPhdRRee5uSPK9tkozpwHS6MycO4zvibGRZK1WKSznz7g1HJ8XtjeIOdL4HPyNvvvoorNWo7aLuy1Uaw5D5ZGYmDZZ1xk+NonQU7nPn1AgvzhF6c1mfB7Ep3FQFSh2Xq9RNmeG8Wc82CpZwau9RlfE+PyM4Kcznv6gASZIHtAaKjFJqrAbBXk8nfaLuy9Uew5D5Z6YuC5PuMiw9c+CXI65+kDEmSCTJAJ8msGiLI9uCe5ca14rWFgrc/4mhiXnxHkdPbSByTIBPm1HJW3iT6Paymp2eyXx9bMobYL+/CSJV/jYTQGtvYZFxm+9kmQ09dF+oAEmSATZG+QrzJAlO3Ho4mR+5mb6Xv7jK+JcfkZQU5nKX1AgkyQr8pRzRtIxz7+BjqqgEfOgbYL+3IUl86DpSMYeLTPuMjwtU+CnM5y+oAEmSATZG+QNzFAlO3PR8iNMXFXw0BNn/E1MS4/I8jpXKYPSJAJ8iY5inwj6Vy33zDXFILlsXtlrO3CHr3kzNd4aJWBiD7jIsPXPglyOvvpAxJkgkyQvUG+mwGibK9uVYxc19xsRvYZXxPj8jOCnM5Z+oAEmSDfLUd7vZ103q/C1mNWltou7NmEFAMtMLBHn3GR4WufBDmd+/QBwwpyCwvkkWvwn5q+/Y/7syTLOG/m4BGGrx2TnSlRtndf49DPcJHBwF59xtfEuPyMIKeznT4gQfYG2RtkLRYhDGi7sH9nyJAxcFYY2LvPuMjwtU+CnM5h+oAEmSCHyFH2G8tRxysbf+3nkfkQZft4Lb+Ox9BzDGT1GV8T4/IzgpzOaPqABJkgE2RvkHdhQNuF/fw5yfE7fNzLQHafcZHha58EOZ3f9AEJMkHeRY6OfIPZ89j3Foxbf99SBkTZvn6LUz/HxlYGjugzvibG5WcEOZ3d9AEJMkEmyN4g786Atgt7+1YR8ndYWTJwZJ9xkeFrnwQ5ndP0AQkyQd5djlp6m9n6tSwLQ83Xrd4nUbbH13Dt2Hn4aaHP+JoYl58R5HQW0wckyASZIHuDnM6Atgt7PdnFwDUGWuozLjJ87ZMgp/ObPiBBJsjpctTq280WrutawXjkZy3cy5ZrIMr2/Ef4dsyY3LTWZ3xNjMvPCHI6g+kDEmSCTJC9QT6UgXPbxYev/nb6vYj0qX+zMtBqn3GR4WufBDl9vaYPOH1R8l/Se/Nfcdvyxs/f7JtXVIHscZ70J9v/o/h3nj5Yar3P+JoYl58R5HTG0gckyN4gH/r2sEeR2/Oaowr7nte497n/4k//5fTyxavp96YoFpxHXW2NgV76jIsMX/skyOnrKn3A6YuQN8j7vhHdW6ZGO39UIRshF/3J6kHUenCedljqqc/4mhiXnxHkdKbSByTI3iB7g6wHuVkG9CerCeR2DAZ67DMuMnztkyCnc5k+IEEmyM3K0QhvQe+9hygZuHfc1v9ef7LaELU2nCeXpZ77jK+JcfkZQc7l6B0LNz3wkxYLLRYtyWHUHtDSPUVei/7k/D0yiknnmWvuRugzLjJ87ZMgp/OcPqA3yN4ge4OsxaI7BvQnqxWEu10GRukzvibG5WcEOZ2/9AEJMkHuTo4i30i2dq6oot/afe1xPfqT1Yuo9eI8MSyN1mdcZPjaJ0GOYeaOtZc+IEEmyATZG+SuGdCfrG7cUWSnr3l7ZDVqn/E1MS4/I8jp+076gNNvFnqQ9SDv8Xbz0XNGFa9Hx+/5OP3J6kfU+nGebSyN3mdcZPjaJ0HexkjgWkofkCB7g9z128Oehe7atUdtJtfOPcvP9CerI1HryHluszRDn/E1MS4/I8i32dhp3aQPSJAJMkHWYjEcA/qT1ZKdivT0NfPcZ/zjH39xKqI46ydBTt9j0gecfrFrsdBi0dKb1aii3tI9HXkt+pPVlKg1Nft5Zuwzfk7+CXL63pI+IEH2Bnm4t4dHClnt2FFFuPY6Rjtef7LaErW2ZjtP6TN+ThZn/B1BTt9T0gckyASZIGuxmIYB/clqzGyCW3O/s/cZPyf+BDl9L0kfkCAT5GnkqIe3ojXFbHlsD/d61DXqT1ZnlmvF12/zoM/4P1Z7rAny29zsvJbSByTIBJkge4M8JQP6k9WbnQt6d/VVn/G6GJe3ygQ5ff9IH7C7BRy9ofk/6fk/6R31JvPauFF8Xzu3n11nXX+yuhO17no9jz7j7WJMkA/bLw4beFpRJsjXpYFMHZNLVIE1f/fPn/5k9Sdq/fV0Hn3G98vxWZK9QU7fL9IHnFaMywZGkO8XCfK1X2aFy9pPc/TYHOlPVoNq114vx+szfkyMvUE+bI84bOBpRZkgPyYSBGyf3KKKq/mpmx/9yWpR1Fps7Tz6jOvEmCAftjccNjBBbuj/qEVu6uSm5/yiimnPGbR07fqT1aSoNXn0efQZx4gxQT5sTzhsYIJMkKf8Nxm0JGPna4kqoq3dV+/Xoz9ZbYpam0ecR59xrBzrQT5kPzhk0LCifMTCrx1Ti8W8b2tblLZansvxLd5b79ekP1l9Kuurl099xvFi7A3yYfvAYQNPK8kEmSC3JG5RhbelexrtWvQnq1NR63Sv8+gz3k+MCfJh6/+wgQmyFgstFg0wEFUwR5PSFu9Hf7J6FbVeo86jz3h/MSbIh637wwYmyA3IUYsS4Jpy37BHFUrzljdv+pPVrah1W3MefcZ5cqwH+ZA1f8ig08rxeTPSYpEnEqRtPeuaArk8VtbrWUdmpD9Z7Vquv8yv9RnnirE3yIet9cMGnlaSCXKuSERKyYjniiqsI2bTwz3pT1bDotbw2nn0GR8jxgT5sDV+2MAEWYuFHuQGGFgrilt/34NMjnyN+pPVsq1r9d6/02d8rBgT5MPW9mEDE+QG5GhkYXBv297U31ssb/29vLflvXdO+pPVtFtr9JGf6zNuQ471IB+yrg8ZdFo5Pm9QWizaEIm9RaWX8z9SNK8d08v9znCd+pPVtWtr9J6f6TNuR4y9QT5sPR828LSSTJAJckuSdk/RfO5vW7on1/L1GtOfrL49t2av/U6fcXtiTJAPW8eHDUyQtVjoQW6AgWtF8pGfkdJ2H/z0J6tza2tan3G7YkyQD1u/hw1MkBuQI1LTrtRkzc1a4dz6+6zrNc7jzOpPVu+urWd9xu3LsR7kQ9buIYNOK8fnzUmLxeMFnhzFZ3etYD7yM3MTPzd7ZKo/Wc0r61ufcR9i7A3yYWv2sIGnlWSC3IdI7CEnLZ6zFMvazxbvzTXdXmv6k+etffqM+xJjgnzYWj1sYIKsxUIPcgMM1IpxOZ6M3pbRlrPRnzxPDdRn3KcYE+TD1uhhAxPkBuSo5cLt2nKEqwhu7af5ypmvvXLWnzx2LdRn3Lcc60E+ZH0eMui0cnyWEC0WfYvEXoJy1Hlrxbgcf9T1GzduPZ3bLv7s+3839f5ceB7lU59x/2LsDfJhnnrYwNNuwgQ5rqCTo/oso0TAXNTPRSsZ6k/uvy7qMx5HjAnyYevxsIEJshYLPcgNMECQxxHbaMH+xY/+/fTyxatp9+qotZF5Hn3G44kxQT7MUw8beNpN1xtkQhItMjXniyreNdfg2LbXhP7kPuqkPuNx5VgP8iFr8JBBp5Xjs4wQ5LZlYDZZI8h43MK8/uR2a6U+47HF2Bvkw9beYQNPK8kEmZBsEZKsvyHIeLyHNf3J7dRMfcZziDFBPmzNHTYwQW6g//SewuhvxxQpgjzmvO69XvUnH1c79RnPJcYE+bC1dtjABJkg+z/pNcAAQSbINTKtPzm3huoznlOO9SDnrrNv6uIhg04rx+fQtVgQkhohiT6WIOOxlin9yfvXUX3G84qxN8j7r68bdfCwgaeVZIJMSGqFJPL4GxvD3esz8pqcq881oj85vp7qMybGBDl+XW2se4cNfHcB3nhDzZ+XIPdZ/EeVtqh1NWo+7uv+9ao/ub6u6jMmxkWMy+f773/WvN9E1ZNGzlO/kBu5kW7AIcj3F1ySsl9mUevXHO03R71mqz/5sfqqz5gcFylefhLkx9ZTRY1LH7Abka0I9dl7JMhEoiXhieK8pXtyLe2sMf3J22vsuc/4pz/959NSinxNlgsDBHn7Wgqqa+kDPiuPQTfV9BgEuZ3iTaS+ClsrssT1cwzoT75da/UZk+Aiwc99EuTba2gnd0wfMKwg7xTI7tdHkInEcyKR/buodZR93cbrcx3pT35Tc899xh988NfeGP+cID8nxuV3BPnN2omqWyvnSR9wdwFdueHDxyfIfRb2UYUsar2Mmo/72me9zt6frM+YFBfx3fpJkNN9NX3AwwU1SggePQ9B3qfgEpnHcn2U48vj5P9Y/jPnNmN/sj5jYrxViC//jiCn+2r6gAT5wy/8F+Qa+C/IzSwmy3u/FN1Hv1+e09dk+R4GZuhP1mdMjC+F997vCXK6r6YPOL0gnwXkg+/86vT5J18SZaJ8OAOPCvHlcfcIkb8l0NcYGLE/WZ8xMb5XhG/9PUFO99X0AQnyO19n/vLFq9NPfvj3hwvStULlZ/MIzKXoPvo9ZuZhZu+5HqU/WZ8xOb4lu4/8nCCn+2r6gAT5G0EuInIW5U8/0naxd9F1/usCVzis/ZTv9Xzl8lguPfcn6zMmxo8I8NoxBDndV9MHJMgXglzE5A++/UttF1ou0v+JQuGv9pMIPiaCcns+t576k/UZE+M1ya35PUFO99X0AQnyDUEugqI/+fmCSShi8ync1X6al9h5kefTPFvuT9ZnTIxrxHfrsQQ53VfTByTIK4J8FhX9yU+LI1nYL49aMS7Hm6P95ki2b7JtrT9ZnzE53iq4tX9HkNN9NX1AgrxBkIt06E9+UxhJwj5ZFNZqP83PPvMj17dzbaE/WZ8xMa4V3nuPJ8jpvpo+IEG+Q5CLtOhPfrtIEoeYTApjtZ/mI2Y+5EuUpxgAACAASURBVLg9xyP6k/UZE+N7xTbq7wlyuq+mD0iQHxDkIi/6k7cXT6KxLavCVu2nvLflLaf4nDL6k/UZE+Mo0X30PAQ53VfTByTIFYJ8lhj9yfEFdmZpqRXjcvzMGbr3NtbkXv3J+ozJ8aNSG3kcQU731fQBCXKlIBch0Z/cRlHuXY4KT7Wfvefg+sdYT+e2iw9f/W1InTm3U/z0p/98ipQc5yLbjzJAkNN9NX3AkI2rtpiPdLz+5DEK+1GCFrUWjrp+4+L/koFPP/wipM68//5/J8c/J7SPCm30cQQ53VfTBwzZuKKK+kjn0Z9MFC5FYcv3UWtgy1j+BqMZDBBkUhstpy2cjyCn+2r6gAQ5qMXimtjoTyYg9wrINY4e+dm94/p7rO7FAEEmyC0IbfQ1EOR0X00fkCDvKMhFbPQnk4+t8lGYqf3cOp6/w+beDBBkghwtpy2cjyCn+2r6gAQ5QZCL7OhPJiNrMlJYqf1cG8fvsZjFAEEmyC0IbfQ1EOR0X00fkCAnCnKRHv3J5OSWnBRGaj9vnd/PsZfNAEEmyNFy2sL5CHK6r6YPSJAPEOSz/OhPJirXRKVWjMvx187tZ5g7ggGCTJBbENroayDI6b6aPiBBPkiQi8joTyYtS2kpXNR+Ls/pa4wdyQBBJsjRctrC+Qhyuq+mD0iQDxbkIkLv/+4np88/+fJ0ZCEz9vEiVXio/TSXx8+lOfh6DggyQW5BaKOvgSCn+2r6gAS5EUEuQqQ/eW6xKRzUfpKzuTlqaf4JMkGOltMWzkeQ0301fUCC3Jggn8Xo3Hbx8Q9+423yZ/NJTq0Yl+NbEiTXMh/HyzknyAS5BaGNvgaCnO6r6QMS5AYFuUiO/uT5xKLMfe3nUlB8PR9HLc05QSbI0XLawvkIcrqvpg9IkBsW5CJJ+pPnEZwy57WfLQmSa5mH32tzTZAJcgtCG30NBDndV9MHJMgdCHKRJf3J44tGmevaz2ui4mfj89PiHBNkghwtpy2cjyCn+2r6gAS5I0E+S5P+5LElp1aMy/EtipJrGpvdW/NLkAlyC0IbfQ0EOd1X0wckyJ0JchEg/cljykaZ39rPW7Li52Ny0/K8EmSCHC2nLZyPIKf7avqABLlTQS4CpT95LOEp81r72bIwubaxmF2bT4JMkFsQ2uhrIMjpvpo+IEHuXJCLSOlPHkM6ynzWfq5Ji9+PwUsP80iQCXK0nLZwPoKc7qvpAxLkQQT5LFT6k/uXnloxLsf3IE6usX9et8whQSbILQht9DUQ5HRfTR+QIA8kyEWO9Cf3Kx5lDms/t4iLv+mXk57mjiAT5Gg5beF8BDndV9MHJMgDCnKRK/3J/QlQmbvaz54EyrX2x+k9c0aQCXILQht9DQQ53VfTByTIAwtykSz9yf0ISJmz2s97BMbf9sNHj3NFkAlytJy2cD6CnO6r6QMS5AkE+Sxb+pP7kKBaMS7H9yhSrrkPRu+dJ4JMkFsQ2uhrIMjpvpo+IEGeRJCLOOlPbltCyjzVft4rMf6+bS56nh+CTJCj5bSF8xHkdF9NH5AgTybIRbz0J7cpRGV+aj97FirX3iabj84LQSbILQht9DUQ5HRfTR+QIE8qyEXA9Ce3JSNlXmo/H5UZx7XFwwjzQZAJcrSctnA+gpzuq+kDEuTJBfksYvqT25GiWjEux48gVu6hHS5r5oIgE+QWhDb6Gghyuq+mD0iQCfJrBvQnHy8kRXBrP2uExrHHczDSHBBkghwtpy2cjyCn+2r6gK/lqLYgO36cudOffJwgRa2jkQTLvRzHY0T2BJkgtyC00ddAkNOdJ31AguwN8k0G9CfniwlBzs88QgKd4/a8EWSCHC2nLZyPIKf7avqAN+UoqlA7T99zqj/5duHfQ4qi1sse1+acuSyMkjdBJsgtCG30NRDkdLdJH5Age4O8iQH9yTlyRJBzch5FPnu4D4JMkKPltIXzEeR0X00fcJMcRRVt5+l/fvUn7ytwUWukB3Fyjfuy1Eq+BJkgtyC00ddAkNN9Jn1AguwN8kMM6E/eR24I8j65tiKLM14HQSbI0XLawvkIcrqvpg/4kBxFFXHn6Xu+9SfHy1zUmphRxNxzPI8RmRJkgtyC0EZfA0FO95f0AQmyN8jVDOhPjhMTghyXZYTcOUf9fBBkghwtpy2cjyCn+2r6gNVyFFXQnaf/udefXC8TUeuA2NXPhQxjMiTIBLkFoY2+BoKc7izpAxJkb5DDGdCf/LhYEOTHsyO0bWZHkAlytJy2cD6CnO6r6QOGy1FUgXeevlnQn/yYrERxTxYfy19u8bkRZILcgtBGXwNBTneU9AEJsjfIuzKgP/k+4SDI9+VFaNvPiyAT5Gg5beF8BDndV9MH3FWOooq98/TPhf7kbSITxTpx3Ja3nPbPiSAT5BaENvoaCHK6l6QPSJC9QU5lQH/y80JCkJ/Ph9D2lw9BJsjRctrC+Qhyuq+mD5gqR1HF33n65kR/8m3JiWKbSN7OWDa52RBkgtyC0EZfA0FO95D0AQmyN8iHMaA/+W1RIchvZ0Jo+86EIBPkaDlt4XwEOd1X0wc8TI6iRMB5+mdGf/IbAYrimVS+yVQWx2ZBkAlyC0IbfQ0EOd090gckyN4gN8OA/uSvwuaCFB4rhfJ/kz9BJsjRctrC+Qhyuq+mDxhWkKPefDnP3AzM3p8cxT9BeyNosjg2C4JMkFsQ2uhrIMjprpI+IEH2BrlJBmbtTybIx8ocmY7PnyAT5Gg5beF8BDndV9MHbFKOoiTBefrnabb+5ChmiV686Mn0sUwJMkFuQWijr4Egp/tF+oAE2RvkLhiYpT+ZID8mYeS13dwIMkGOltMWzkeQ0301fcAu5ChKGpynb75m6E+OYpQwtiuMs80NQSbILQht9DUQ5HSfSB+QIHuD3B0DI/cnE2RiO5pAE2SCHC2nLZyPIKf7avqA3clRlEA4T/+sjdifHMXlaJLlfvp9cCDIBLkFoY2+BoKc7hDpAxJkb5C7Z2Ck/mSC3K8Ikvjrc0eQCXK0nLZwPoKc7qvpA3YvR1FC4Tx9szdKf3IUh2TtuqzJJT8XgkyQWxDa6GsgyOnOkD4gQfYGeSgGeu9PJsj5Akea982cIBPkaDlt4XwEOd1X0wccSo6i5MJ5+uew1/7kKPZI377SJ9/t+RJkgtyC0EZfA0FO94T0AQmyN8hDM9BbfzJB3i5eJLWPrAgyQY6W0xbOR5DTfTV9wKHlKEo2nKdvLnvqT45ijTz2IY8zzBNBJsgtCG30NRDkdC9IH5Age4M8DQM99CcTZGI7mjQTZIIcLactnI8gp/tq+oDTyFGUeDhP/4y23J8cxddokuV++n1wIMgEuQWhjb4GgpzuAukDEmRvkKdloMX+ZILcrwiS+OtzR5AJcrSctnA+gpzuq+kDTitHUSLiPH0z21p/chRPZO26rMklPxeCTJBbENroayDI6bU/fUCC7A0yBt5559RKfzJBzhc40rxv5gSZIEfLaQvnI8jpvpo+IDkiyBhYMHB0fzJB3lfWyHB+vgSZILcgtNHXQJDTfTV9QHK0kKMoOXGe/jk+qj85ih0imC+CMr+eOUEmyNFy2sL5CHJ6nU8fkCATZAzcYOC33v2d08c/+M0pU3wI8nXJypwDY8XOAUEmyC0IbfQ1EOR0X00fkBzdkKMoUXGe/pnO7E+O4oXkxUqePB/PkyAT5Gg5beF8BDm9tqcPSJAJMgY2MvB7L//49PknX+76RpkgPy5iJLbN7AgyQW5BaKOvgSCn+2r6gORooxxFiYvz9M/4nv3JUXyQxTZlccZ5IcgEOVpOWzgfQU6v5ekDEmSCjIEHGNirP5kgE9vRJJogE+QWhDb6Gghyuq+mD0iOHpCjKIlxnv55j+5PjmJiNMlyP/0+OBBkghwtpy2cjyCn1+/0AQkyQcZAAANR/ckEuV8RJPHX544gE+QWhDb6Gghyuq+mD0iOAuQoSmqcp3/+a/uToxgga9dlTS75uRBkghwtpy2cjyCn1+v0AQkyQcZAMAM1/ckEOV/gSPO+mRNkgtyC0EZfA0FO99X0AclRsBxFCY7z9L8WHulPjpp30rev9Ml3e74EmSBHy2kL5yPI6TU6fUCCTJAxsDMD9/QnE+Tt4kVS+8iKIBPkFoQ2+hoIcrqvpg9IjnaWoyjhcZ7+18aW/uSoeSaPfcjjDPNEkAlytJy2cD6CnF6T0wckyAQZA4kMrPUnE2RiO5o0E2SC3ILQRl8DQU731fQByVGiHEXJj/P0v05u9SdHze1okuV++n1wIMgEOVpOWzgfQU6vw+kDEmSCjIEDGbjsTybI/Yogib8+dwSZILcgtNHXQJDTfTV9QHJ0oBxFyZDz9L9uSn9y1FySteuyJpf8XAgyQY6W0xbOR5DT6276gASZIGOgEQbO/ckEOV/gSPO+mRNkgtyC0EZfA0FO99X0AcMKclRhdx4MYKCeAdK3r/TJd3u+BJkgR8tpC+cjyPV16s5anz4gQW7k7eGdoJg38/YsAwRuu8DJat+sCDJBbkFoo6+BIKf7avqAzxZZ0mY+MNAnA6RvX+mT7/Z8CTJBjpbTFs5HkNNrY/qABNmbSAwMyACB2y5wsto3K4JMkFsQ2uhrIMjpvpo+IDkaUI689bWOSN++0iff7fkSZIIcLactnI8gp9fZ9AEJMkHGwIAMELjtAierfbMiyAS5BaGNvgaCnO6r6QOSowHlyBtk64j07St98t2eL0EmyNFy2sL5CHJ6nU0fkCATZAwMyACB2y5wsto3K4JMkFsQ2uhrIMjpvpo+IDkaUI68QbaOSN++0iff7fkSZIIcLactnI8gp9fZ9AEJMkHGwIAMELjtAierfbMiyAS5BaGNvgaCnO6r6QOSowHlyBtk6+ijV39z+vyTL0/kb1/5k+96vgSZIEfL6dHn+6M/+p+nd9/9bf6U608KO7nDAAZiGHj54tXp04++IMmfrUsc0d0vI4JMkI8W2qjxP/74H0/vvfcnxDhXjEveMYWRYMgRAxgoDBDl/eSPWK9nS5AJcpSgHnWen/70n0/f+tafF1HzSZAJRhEMn1gYgYEPvvMrbRfeJqf/EwWCTJCPEtvacX/2s389fe97v9ZOcYwQXz6IEJERRMQ94LhlBojy+ltPb4bjMiLIBLlWVI84Xp9xc3W8uQu6NHjft/EkZR7MQxUD2i7iBJBMP58lQSbIRwjuo2PqM27WQ5u9sKpi3PLbNNeGuZkZIMrPyx35rc+HIBPkR2U18zh9xs27QPMXSJS9ucTAgAxou6gXQTJ9PUOCTJAzRffesfQZd+Od3VwoSRpQkmZ+k+rev957iPJ1ySO/j+dCkAnyvdKa9ff6jLtyzq4uliSTZAwMyIC2i8dlkEi/nR1BJshZwrt1HH3GXbpmlxdNkgaUJG9UrUWi/LbsEeD7MyHIBHmruO79d+c+Y/+hj25rW7cXTpJJMgYGZUDbxf1SSKTfZEaQCfLe4rt2fn3GQ7jlEDdBlAYVJW+V516fRPmN9BHg7VkQZIK8JrB7/v6DD/7af+hjDCeZuwATMPOPgbYZ0HaxXQxJ9NdZEWSCvKcA3zq3PuO2a8kDtX64G/I2eYwnN/NoHp8wQJSJ8tYHAIJMkG9J7B4/12c8rEcOe2NPiusDTw6OJ2gYaJABbRdEeU2UCTJB3kOEL8+pz3h4fxz+BklOg5LjgcW6q2WAKBPlW6JMkAnypcxGf6/PeIoaNsVNkmSSjIEBGdB2QZKvSTJBJsjRQlzOp894Kmec6mZJ0oCSVPsm0vH97wFEmSgvRZkgE+QitFGf+oz7rxMP1Popb5ooE2UMDMiAtguifBZlgkyQo8RYn/HUjjj1zZOkASXpgadEHARwcH6L20r2RHluUSbIBDlCkPUZT++H0wfQTFFvRS5chzXxCAPnN3d/9v2/a2Y9abuYV5IJMkGuEWR9xmrgNzVQEI/IgGNwg4GnDJQe0M8//fL0h9/5FVH+bF5BLSwc9UmQCfIjgqzP+OmersYF/KNVIYIKAxi4lKGzKP/eyz9uRpS1Xcwj7ASZIN8jyPqM1a8bDiOYG8E0U9hdH0Z7YOBSkMv3n370Tyf9yfPIaZn3Iz8JMkHeKsj6jNXXZ+qrcJ4JhyT7JwwY2MjAmhCd+5N/693/1ESe+pPHFnaCTJDXBFmfMffb4H5C2hBSE0XddWK1ZQbWBPn8e/3JY4vpFgYy/oYgE+RbgqzPWB29o44K646wiPLGt4kynW9d3SM++pOJ8j283Pu3BJkgXwqyPuP5alKAhwgtIETiTJynZ+BeiTn/vf5kovwIN2vHEGSCvBRkfcY870HPE9yDwU0vRHKzdpYMrEnLc7/Xn0yUn+Pj3t8RZIJ8FmR9xmrUskY98LUAHwiNHHtjjIELBu6VmMu/159Mki+ZePR7gjy3IOsz5nVBXifIoCAJ04UwyXWutfWozFwepz+ZKF8yce/3BHlOQdZnPFfNSXAMgSaETJ7J8/AM3Csxa3+vP5korzFy6/cEeT5B1mfM5XZwOaHuEOrwMiQz6+aSgVuyUvvz1vqTf/LDvz/V3pPj95V/gjyPIJ/7jF++/L6a6yXUHgwo9JeF3veYwMD9DOwpffqT9xXKPefuiHMT5PEFWZ/x/Xu0unZ3ZncfsIelO6enPwx0zkCGCLXWn/wH3/7l6fNPvvRG+bO2BJ4gjyvIpc+Y7HG3BAaEnBAy+etc/jCyvk9kCHIZQ39yW0Ja5qWVT4I8piDrM17fh9Wq0IxCT0YEiSAGJmXgCDnSn0yUr3FHkMcSZH3GPO0g8Rf8QcETyUlFclTerolKxs/0J5PkS84I8hiCrM+Ynx1cL03AwRNAlInyEAxcSkr29/qTiXJhjiD3Lcj6jHlZI15mIhqZiCEkSZbzrqciJ0d/6k8mygS5X0HWZzxvDWnQH0xGg5NClr1V7o6Bo8X4cnz9yfOKMkHuT5D1GXOxBl3MpDQ4Kd3JkQyto0tBbeF7/clzSjJB7keQ9RmrHQ37g8lpeHKIsjfJ3TDQghDfugb9yXOJMkFuX5D1GXOvDtzLJHUwSd1IkiznXU+35LSln+tPnkOUCXLbgqzPeN460ZkjmKjOJowse6vcJAMtifDatehPHluUCXKbgqzPmG915lsmrLMJa1KOZGgdrUlpa7/XnzyuJBPktgRZn7H60KkjmLhOJ44oe5PcFAOtCfDW69GfPJ4oE+Q2BFmfMb/q3K9MYOcT2JQkyXLe9bRVSFv9O/3J44gyQT5ekPUZz1sLBvIAkzjQZJJlb5UPY6BV8b33uvQn9y/KBPk4QdZnzKkGciqTOdBkHiZHMrSO7hXRlv9ef3LfkkyQ8wVZn7EaMKAHmNQBJ5Uoe5OczkDLwvvotelP7lOUCXKeIOsz5lADO5TJHXhy0yVJlvOup0cltIfj9Cf3JcoEOUeQ9RnPu99PUutN8CQTTZa9Vd6VgR5Et/Ya9Sf3IcoEeV9B1mfMmybxJhM9yUTvKkcytI5q5bOX4/Unty/JBHkfQdZnbJ+frNab8MkmnCh7k7wLA70IbtR16k9uV5QJcqwg6zPmSZN6komfdOJ3kSRZzrueosSzt/PoT25PlAlynCDrM553T1fPvU0jihjAQAADvYlt9PXqT25HlAlyvSCf+4xfvPh9e2PA3kg0u33I6PbCLVwLFwMNMRAtnD2eT39yG5JMkB8XZH3GnIjQv2bg9RdkoyHZACgue2OgR6Hd65r1Jx8rygT5fkE+9xl/97t/yQN4AAbeMEBEehMR14vZFhnYSzZ7Pq/+5GNEmSDfJ8j6jNWUFmtKA9cEjAYmwRPbmyc2WXSaRc8iu/e1n/uTX7541QTb5+v4yQ///rT3PR95foK8TZD1GfMf/vMsA8/+sokN3QSaIwy0z8CRQtTD2PqT894mE+TnBVmfcfv7qZrXxBw1cRFEvNO3hhax9VMY6EFSW7jGsyj/5/c+aWbPe/93Pzl9/smXQ71RJsjXBVmfsf267Nc+N7Gw6Y+a2cxNqvnCQJsMtCCfPV2D/uT93igT5LcFWZ9xm/umetb0vDR9ccTcm2UMdMJAT3La0rW21p/88Q9+0/3bZIL8RpD1GXMcEv4wAw8fSFw6EReLA+MZDLQknb1di/7k2LfJBPk/TvqM7fsZ+/7gY4Bo8An2IONBJoWB3qS0xevVnxwjyjMLsj5jTsNpwhgIO1FKETbx5gsDbTLQonD2ek36k+tEeVZB1mfc5t6oZnU7L91eOCH3ZhQDDTHQq4y2fN36kx8T5dkEWZ8xjyHhuzCwy0mJS0PiYuFgPIOBlkWz52vTn3y/JM8iyPqM7e0Ze/vEYwBs4sn3IONBJoyBniW0h2vXn7xdlEcXZH3GvIW3pDCQMkhYEQaF+cJAmwz0IJkjXKP+5HVRHlmQ9Rm3uf+pS0POy5A3Rci9GcVAMgMjyGdP96A/+bYojyjI+oy5CglPZyB9QOKSLC4WFcYzGOhJLke5Vv3J1yV5JEHWZ2z/zti/jXGVs6s/JLEkFgMYuIuBUaSzx/vQn/xUlEcQZH3G3IS0Hs7A4RdwVxEGjPnCQJsM9CiWo12z/uSvRbl3QdZn3OYep/ZMNy/T3TAh92YUAzswMJps9nw/s/cn9yrI+oz5CAlvioGmLoa47CAuFhzGMxjoWShHvPaZ+5N7E2R9xvbojD3aGHdzdvcBJJbEYgADbzEwomSOcE8z9if3Isj6jPkHaW2agaYv7q0iDCbzhYE2GRhBJke+h5n6k3sQ5O9979end9/9bTXOywYMtMtAm8WWBJkXDPTFwMhyOdK9zdCf3LIg6zPua19Th6aer6lv3pNbu09u5qazuRlJIke/l9H7k1sU5B//+H+d3nvvT+xrne1rBHlqR5z65m1WNisMBDEwulSOeH+j9ie3JMj6jDkGye6WgW4vnNgEiY3Faw1EMDCiQM5yT6P1J7ciyPqM7a0Re6tzHMbRYQMTXIKLgYEYmEUmR77PUfqTjxZkfca8gtQOwcAQN0G0BhItG0ufa3JkcZzp3kboTz5KkPUZ97l3qTnm7QYDgrkRDOkm3Ri4g4GZJHKGe+25PzlbkPUZ8wgeMSQDQ94UsblDbCxsayCCgRmkccZ77LE/OVOQ9RnbPyP2T+dokqMmL4rgElwMdMbAjPI40z331J+cIcj6jLkDqR2egeFvkGh1Jlo2nT7X5EyyOOu99tKfvKcg6zPuc39SV8zbAwwI7YHQSDfpxsAFA7NK44z33Xp/8h6CrM+YK3CF6RiY7oaJzYXYWPTWQAQDM4ri7Pfcan9ytCDrM7ZHRuyRztEdR91dMMEluBhokIHZZXHm+2+pP/m33v2d0++9jPlPOr/33n85vXjx+/abBvcbssndEhgQckLINlgb7PAMzCyI7v2rU2v9yfZ1tR0DGKhkQICVAQ4vPvKxRrYwQBK/Osnga1H+z+99Yl/0UgADGOidAcV/S/H3NzjBwPMMkEOCvGSgtf5k6/f59Ssf+WDgLQbe+kHvxu/6PbVi4AAGlnLka7JcGGipP5kAqPcYwMAdDAjrjrCI1wHiZX76WKNFiHyS40sG9Cf3sYbtteYJA08YePINASSAGMDAQwxcSpHvifIlA2dRfvXtXz7El8KtVmMAA8kMCDw5cMWBgA7JwKUM+Z4g32JAf7K6q+5ioAMGTFIHkzSkUMl9rLV3S4b8nCjfYuAnP/yH08sXr+xvXhpgAAMtMjBWkSZd5hMDxzBwS4L8nCA/x4D+5GPWq31S7hhYZWD1D1q0etfkaRMDjTHwnAT5HUleY0B/slpM2DDQGAMmpLEJIX6NiR8+tu0RawLk9yR5CwP6k7etN/uSnDCwOwO7D0D4CB8GJmBgi/z4G5K8lQH9yWozAcTAwQyYgIMngDxOII8zMLZVfPwdSd7KgP5k9XmGvdM9Nst5sxdGHIkjBjpiYKv0+DuCfC8D+pPVaRKJgQMYEPoBoRO/jsQPH9v2iHulx98T5XsZ0J+8bS3as+SEgRAGQk5C+AgfBiZn4F7Z8fcE+VEG9Cer2wQQAwkMCDkhZPI4uTzOwNijsuM4ovwIA/qT1e4Z9lX3eCjnhw5OHIkjBgZh4BHJcQw5rmVAf7IaTiIxsBMDgt0pWOI3iPjhY9seUSs6jifLNQzoT962Tu1ncsLAZgY2/yHhI3wYwMBNBmrkxrHkOIoB/clqOgHEQBADggwK8qY4OD/GZmAgSnCchyzXMvDph1/Yjz3MYwADtQyQlxnkxT3ifG8GaqXG8cQ4igGCbL/be79z/ikYm+Ima58iHO9JFAMrDETJjfMQ5VoGCLK6TmAxEMCAEANCJE8r8iTj8ddZrdQ4nhhHMUCQx99v1BRznMCAkBNCJtAEengGouTGeYhyLQMEWV1X1zEQwIAQA0IcXn5kZJ2sMVArNY4nxlEMEGT71dp+5fcY2cCAkDaERIC9AcbACgNRcuM8RLmWAYKsrqvrGAhgQIgBIZKnFXmS8fjrrFZqHE+MoxggyOPvN2qKOU5gQMgJIRNoAj08A1Fy4zxEuZYBgqyuq+sYCGBAiAEhDi8/MrJO1hiolRrHE+MoBgiy/Wptv/J7jGxgQEgbQiLA3gBjYIWBKLlxHqJcywBBVtfVdQwEMCDEgBDJ04o8yXj8dVYrNY4nxlEMEOTx9xs1xRwnMCDkhJAJNIEenoEouXEeolzLAEFW19V1DAQwIMSAEIeXHxlZJ2sM1EqN44lxFAME2X61tl/5PUY2MCCkDSERYG+AMbDCQJTcOA9RrmWAIKvr6joGAhgQYkCI5GlFnmQ8/jqrlRrHE+MoBgjy+PuNmmKOExgQckLIBJpAD89AlNw4D1GuZYAgq+vqOgYCGBBiQIjDy4+MrJM1BmqlxvHEOIoBgmy/Wtuv/B4jGxgQ0oaQCLA3wBhYYSBKbpyHKNcyQJDVdXUdAwEMCDEgRPK0Ik8yHn+d1UqN44lxFAMEefz9Rk0xxwkMCDkhZAJNoIdnIEpurt0IhQAAFuRJREFUnIco1zJAkNV1dR0DAQwIMSDE4eVHRtbJGgO1UuN4YhzFAEG2X63tV36PkQ0MCGlDSATYG2AMrDAQJTfOQ5RrGSDI6rq6joEABoQYECJ5WpEnGY+/zmqlxvHEOIoBgjz+fqOmmOMEBoScEDKBJtDDMxAlN85DlGsZIMjqurqOgQAGhBgQ4vDyIyPrZI2BWqlxPDGOYoAg26/W9iu/x8gGBoS0ISQC7A0wBlYYiJIb5yHKtQwQZHVdXcdAAANCDAiRPK3Ik4zHX2e1UuN4YhzFAEEef79RU8xxAgNCTgiZQBPo4RmIkhvnIcq1DBBkdV1dx0AAA0IMCHF4+ZGRdbLGQK3UOJ4YRzFAkO1Xa/uV32NkAwNC2hASAfYGGAMrDETJjfMQ5VoGCLK6rq5jIIABIQaESJ5W5EnG46+zWqlxPDGOYoAgj7/fqCnmOIEBISeETKAJ9PAMRMmN8xDlWgYIsrqurmMggAEhBoQ4vPzIyDpZY6BWahxPjKMYIMj2q7X9yu8xsoEBIW0IiQB7A4yBFQai5MZ5iHItAwRZXVfXMRDAgBADQiRPK/Ik4/HXWa3UOJ4YRzFAkMffb9QUc5zAgJATQibQBHp4BqLkxnmIci0DBFldV9cxEMCAEANCHF5+ZGSdrDFQKzWOJ8ZRDBBk+9XafuX3GNnAgJA2hESAvQHGwAoDUXLjPES5lgGCrK6r6xgIYECIASGSpxV5kvH466xWahxPjKMYIMjj7zdqijlOYEDICSETaAI9PANRcuM8RLmWAYKsrqvrGAhgQIgBIQ4vPzKyTtYYqJUaxxPjKAYIsv1qbb/ye4xsYEBIG0IiwN4AY2CFgSi5cR6iXMsAQVbX1XUMBDAgxIAQydOKPMl4/HVWKzWOJ8ZRDBDk8fcbNcUcJzAg5ISQCTSBHp6BKLlxHqJcywBBVtfVdQwEMCDEgBCHlx8ZWSdrDNRKjeOJcRQDBNl+tbZf+T1GNjAgpA0hEWBvgDGwwkCU3DgPUa5lgCCr6+o6BgIYEGJAiORpRZ5kPP46q5UaxxPjKAYI8vj7jZpijhMYEHJCyASaQA/PQJTcOA9RrmWAIKvr6joGAhgQYkCIw8uPjKyTNQZqpcbxxDiKAYJsv1rbr/weIxsYENKGkAiwN8AYWGEgSm6chyjXMkCQ1XV1HQMBDAgxIETytCJPMh5/ndVKjeOJcRQDBHn8/UZNMccJDAg5IWQCTaCHZyBKbpyHKNcyQJDVdXUdAwEMCDEgxOHlR0bWyRoDtVLjeGIcxQBBtl+t7Vd+j5ENDAhpQ0gE2BtgDKwwECU3zkOUaxkgyOq6uo6BAAaEGBAieVqRJxmPv85qpcbxxDiKAYI8/n6jppjjBAaEnBAygSbQwzMQJTfOQ5RrGSDI6rq6joEABoQYEOLw8iMj62SNgVqpcTwxjmKAINuv1vYrv8fIBgaEtCEkAuwNMAZWGIiSG+chyrUMEGR1XV3HQAADQgwIkTytyJOMx19ntVLjeGIcxQBBHn+/UVPMcQIDQk4ImUAT6OEZiJIb5yHKtQwQZHVdXcdAAANCDAhxePmRkXWyxkCt1DieGEcxQJDtV2v7ld9jZAMDQtoQEgH2BhgDKwxEyY3zEOVaBgiyuq6uYyCAASEGhEieVuRJxuOvs1qpcTwxjmKAII+/36gp5jiBASEnhEygCfTwDETJjfMQ5VoGCLK6rq5jIIABIQaEOLz8yMg6WWOgVmocT4yjGCDI9qu1/crvMbKBASFtCIkAewOMgRUGouTGeYhyLQMEWV1X1zEQwIAQA0IkTyvyJOPx11mt1DieGEcxQJDH32/UFHOcwICQE0Im0AR6eAai5MZ5iHItAwRZXVfXMRDAgBADQhxefmRknawxUCs1jifGUQwQZPvV2n7l9xjZwICQNoREgL0BxsAKA1Fy4zxEuZYBgqyuq+sYCGBAiAEhkqcVeZLx+OusVmocT4yjGCDI4+83aoo5TmBAyAkhE2gCPTwDUXLjPES5lgGCrK6r6xgIYECIASEOLz8ysk7WGKiVGscT4ygGCLL9am2/8nuMbGBASBtCIsDeAGNghYEouXEeolzLAEFW19V1DAQwIMSAEMnTijzJePx1Vis1jifGUQwQ5PH3GzXFHCcwIOSEkAk0gR6egSi5cR6iXMsAQVbX1XUMBDAgxIAQh5cfGVknawzUSo3jiXEUAwTZfrW2X/k9RjYwIKQNIRFgb4AxsMJAlNw4D1GuZYAgq+vqOgYCGBBiQIjkaUWeZDz+OquVGscT4ygGCPL4+42aYo4TGBByQsgEmkAPz0CU3DgPUa5lgCCr6+o6BgIYEGJAiMPLj4yskzUGaqXG8cQ4igGCbL9a26/8HiMbGBDShpAIsDfAGFhhIEpunIco1zJAkNV1dR0DAQwIMSBE8rQiTzIef53VSo3jiXEUAwR5/P1GTTHHCQwIOSFkAk2gh2cgSm6chyjXMkCQ1XV1HQMBDAgxIMTh5UdG1skaA7VS43hiHMUAQbZfre1Xfo+RDQwIaUNIBNgbYAysMBAlN85DlGsZIMjqurqOgQAGhBgQInlakScZj7/OaqXG8cQ4igGCPP5+o6aY4wQGhJwQMoEm0MMzECU3zkOUaxkgyOq6uo6BAAaEGBDi8PIjI+tkjYFaqXE8MY5igCDbr9b2K7/HyAYGhLQhJALsDTAGVhiIkhvnIcq1DBBkdV1dx0AAA0IMCJE8rciTjMdfZ7VS43hiHMUAQR5/v1FTzHECA0JOCJlAE+jhGYiSG+chyrUMEGR1XV3HQAADQgwIcXj5kZF1ssbA5598eaoVG8eT4wgGCLL9am2/8nuMbGBASBtCIsDeAGNgAwMf/+A3p1//t/9LlD8juhGi++g5CLK6rq5jIIABIQaESJ42yJOc51hrL1+8On360RckmSQfxgBBnmOvUVPM884MCHjngMkzeZ6SgbMo/4//+n8Ok6RH3z46rv+33wRZXVfXMRDAgBADQpxSgORm7Wxh4IPv/OqkP7l/6ezpwYEg25u27E3+BicrDAhoJSDy6w0wBgIY0J9MkrMkmyCr6+o6BgIYEGJAiAQqQKDMw/hrUX8ySc6QZII8/l6iXpjjBAaEnBAygSbQGFgwoD+ZKO8pygRZXVfXMRDAgBADQiQ/C/mRpzW1lQH9yUR5D1EmyPagrXuQv8PKMwwI55lwiC/xxUACA/qTiXKkKBNkdV1dx0AAA0IMCJFEJUiUeRp7repPJslRkkyQx94r1ALzm8SAoJOCJtEkGgMbGNCfTJRrRZkgq+vqOgYCGBBiQIjEZ4P4yNlau4cB/clE+VFRJsj2mnv2Gn+LlxsMCOZGMKSX9GKgAQb0JxPle0WZIKvr6joGAhgQYkCIRKoBkTKP465l/ckk+R5JJsjj7gX2eXObyICwE8Mm0kQaAxUM6E8myltEmSCr6+o6BgIYEGJAiKSnQnrkbw3ey4D+ZKL8nCgTZHvKvXuKv8fMFQaEciUUwkt4MdABA/qTifI1USbI6rq6joEABoQYECKZ6kCmzPOYa11/Mkm+lGSCPOZat4eb12QGBJ4cOJkm0xjYgQH9yUS5iDJBVtfVdQwEMCDEgBAJzw7CY16szUcY0J9MlAmyveORvcMxuLlgQCAXgZBdsouBARjQnzyvKBNkdV1dx0AAA0IMCJFQDSBUOBhvL9CfPKckE+Tx1rL92ZwewIDQDwidUBNqDCQyoD95LlEmyOq6uo6BAAaEGBAi2UmUHfNlzT7KgP7kOUSZINsjHt0jHIedBQPCWIRBdIkuBiZgQH/y2KJMkNV1dR0DAQwIMSBEUjWBVOFkrL1Cf/K4kkyQx1qr9l7zeRADgj8oeFJNqjHQAANnUf7Fj/7tVP4duj77F2eCrK6r6xgIYECIASESnQZExzxayzUM6E/uX4zLww1BthfU7AWOxc83DAjCYsAABjBQGDj3J3/+yZfeKH/WrzATZOu5rGefWKhgQHgV4Xlz7M0xBgZkQH9yv3J8fotMkNV1dR0DAQwIMSBEkjSgJOHC3qA/uU9RJsjWrv0bAwEMCDEgRIJMkDEwMAP6k/sSZYKsrqvrGAhgQIgBIZKjgeUIH/aIwoD+5D5EmSBbs2XN+sRCBQPCqwiPGBNjDEzGgP7k9iWZIKvr6joGAhgQYkCIJGkyScKMfUN/cruiTJCtT3s0BgIYEGJAiASZIGNgUgb0J7cnygRZXVfXMRDAgBADQiRHk8oRduwfhQH9ye2IMkG2Lsu69ImFCgaEVxEeMSbGGMDAawb0J7chyQRZXVfXMRDAgBADQnxdIJ0LTxjAgP7kY0WZIFuD9mEMBDAgxIAQCbK3iBjAwFsM6E8+RpQJsrqurmMggAEhBoT4VmF0TlxhAAOFAf3JuaJMkK29svZ8YqGCAeFVhEeMvTXEAAY2MaA/OU+SCbK6rq5jIIABIQaEuKlAGgdrGMCA/uT9RZkgW2f2WgwEMCDEgBAJsreIGMDAXQzoT95PlAmyuq6uYyCAASEGhHhXYTQe5jCAgcKA/uR4USbI1ldZXz6xUMGA8CrCI8beGmIAA9UM6E+OlWSCrK6r6xgIYECIASFWF0jXgEMMYEB/cowoE2RryX6KgQAGhBgQIkH2FhEDGAhjQH9ynSgTZHVdXcdAAANCDAgxrDC6FjxiAAOFAf3Jj4kyQbaGyhryiYUKBoRXER4x9tYQAxjYlQH9yfdLMkFW19V1DAQwIMSAEHctkK4PoxjAgP7k7aJMkK0XeyYGAhgQYkCIBNlbRAxgIIUB/cnrokyQ1XV1HQMBDAgxIMSUwug6sYoBDBQG9CffFmWCbJ2UdeITCxUMCK8iPGLsrSEGMHAYA/qTr0syQVbX1XUMBDAgxIAQDyuQrh2/GMCA/uSnokyQrQn7IgYCGBBiQIgE2VtEDGDgcAb0J38tygRZXVfXMRDAgBADQjy8MLoHHGMAA4WB2fuTCbK1UNaCTyxUMCC8ivCIsbeGGMBAkwzM3J9MkNV1dR0DAQwIMSDEJguk+8I2BjAwY38yQca9vQ8DAQwIMSBEguwtIgYw0DQDM/UnE2R1XV3HQAADQgwIsenC6P4wjgEMFAZm6E8myHgvvPvEQgUDwqsIjxh7a4gBDHTHwOj9yQRZXVfXMRDAgBADQuyuQLpn3GMAA6P2JxNkbNvfMBDAgBADQiTI3iJiAAPdMjBafzJBVtfVdQwEMCDEgBC7LYzuHf8YwEBhYJT+ZIKM6cK0TyxUMCC8ivCIsbeGGMDAUAyM0J9MkNV1dR0DAQwIMSDEoQqkPKwJDGCg5/5kgoxfexgGAhgQYkCIBNlbRAxgYEgGeuxPJsjqurqOgQAGhBgQ4pCFUS7WBgYwUBjoqT+ZIOO2cOsTCxUMCK8iPGLsrSEGMDANA730JxNkdV1dx0AAA0IMCHGaAikr6wUDGGi9P5kgY9Q+hYEABoQYECJB9hYRAxiYjoFW+5MJsrqurmMggAEhBoQ4XWGUmXWDAQwUBlrrTybI2Cxs+sRCBQPCqwiPGHtriAEMYOCdd04t9ScTZHVdXcdAAANCDAhRgSRJGMAABr4R5V/86N9Of/XZV4f9jyCr6+o6BgIYEGJAiAojOcIABjCwYODI/mSCrK6r6xgIYECIASEqjIvCKE9rCgMYKAwc0Z9MkPFX+POJhQoGhFcRHjEmxhjAAAZWGMjuTybI6rq6joEABoQYEKICuVIgZWydYQADWf/+ZIKMNfsNBgIYEGJAiASZIGMAAxjYyMDe/ckEWV1X1zEQwIAQA0JUGDcWRllbbxjAQGFgr/5kgoyxwphPLFQwILyK8IgxMcYABjBQwcAe/ckEWV1X1zEQwIAQA0JUICsKpPytQQxgILI/mSDjyZ6CgQAGhBgQIkEmyBjAAAYCGIjoTybI6rq6joEABoQYEKLCGFAYzYO1iAEMFAZq+pMJMo4KRz6xUMGA8CrCI8bEGAMYwMBODDzan0yQ1XV1HQMBDAgxIEQFcqcCaW6sTwxg4N7+ZIKMGfsGBgIYEGJAiASZIGMAAxjYmYGt/ckEWV1X1zEQwIAQA0JUGHcujObIOsUABgoDH736m9Pnn3x5+qvPvrr6P4KMlcKKTyxUMCC8ivCIMTHGAAYwcAADz/UnE2R1XV3HQAADQgwIUYE8oECaN2sXAxg4i/Jf/On/fvImmSDjwt6AgQAGhBgQIkEmyBjAAAYOZGDZn0yQ1XV1HQMBDAgxIESF8cDCaP6sYQxgoDBw7k/++Pu/sSfbkzGAgVoGbKxlY/WJBQxgAAMYwAAGMICBd0AAAgxgAAMYwAAGMIABDDxh4Mk3ta+jHe8faWAAAxjAAAYwgAEM9M4AQfbEhAEMYAADGMAABjCAgQUDwliE0fvTjuv3xI4BDGAAAxjAAAbqGSDIBBkDGMAABjCAAQxgAAMLBoSxCMMTV/0TlwxliAEMYAADGMBA7wwQZIKMAQxgAAMYwAAGMICBBQPCWITR+9OO6/fEjgEMYAADGMAABuoZIMgEGQMYwAAGMIABDGAAAwsGhLEIwxNX/ROXDGWIAQxgAAMYwEDvDBBkgowBDGAAAxjAAAYwgIEFA8JYhNH7047r98SOAQxgAAMYwAAG6hkgyAQZAxjAAAYwgAEMYAADCwaEsQjDE1f9E5cMZYgBDGAAAxjAQO8MEGSCjAEMYAADGMAABjCAgQUDwliE0fvTjuv3xI4BDGAAAxjAAAbqGSDIBBkDGMAABjCAAQxgAAMLBoSxCMMTV/0TlwxliAEMYAADGMBA7wwQZIKMAQxgAAMYwAAGMICBBQPCWITR+9OO6/fEjgEMYAADGMAABuoZIMgEGQMYwAAGMIABDGAAAwsGhLEIwxNX/ROXDGWIAQxgAAMYwEDvDBBkgowBDGAAAxjAAAYwgIEFA8JYhNH7047r98SOAQxgAAMYwAAG6hkgyAQZAxjAAAYwgAEMYAADCwaEsQjDE1f9E5cMZYgBDGAAAxjAQO8MEGSCjAEMYAADGMAABjCAgQUDwliE0fvTjuv3xI4BDGAAAxjAAAbqGSDIBBkDGMAABjCAAQxgAAMLBoSxCMMTV/0TlwxliAEMYAADGMBA7wwQZIKMAQxgAAMYwAAGMICBBQPCWITR+9OO6/fEjgEMYAADGMAABuoZIMgEGQMYwAAGMIABDGAAAwsGhLEIwxNX/ROXDGWIAQxgAAMYwEDvDBBkgowBDGAAAxjAAAYwgIEFA8JYhNH7047r98SOAQxgAAMYwAAG6hkgyAQZAxjAAAYwgAEMYAADCwaEsQjDE1f9E5cMZYgBDGAAAxjAQO8MEGSCjAEMYAADGMAABjCAgQUDwliE0fvTjuv3xI4BDGAAAxjAAAbqGSDIBBkDGMAABjCAAQxgAAMLBoSxCMMTV/0TlwxliAEMYAADGMBA7wwQZIKMAQxgAAMYwAAGMICBBQPCWITR+9OO6/fEjgEMYAADGMAABuoZIMgEGQMYwAAGMIABDGAAAwsGhLEIwxNX/ROXDGWIAQxgAAMYwEDvDBBkgowBDGAAAxjAAAYwgIEFA8JYhNH7047r98SOAQxgAAMYwAAG6hkgyAQZAxjAAAYwgAEMYAADCwaEsQjDE1f9E5cMZYgBDGAAAxjAQO8MEGSCjAEMYAADGMAABjCAgQUDwliE0fvTjuv3xI4BDGAAAxjAAAbqGSDIBBkDGMAABjCAAQxgAAMLBoSxCMMTV/0TlwxliAEMYAADGMBA7wwQZIKMAQxgAAMYwAAGMICBBQPCWITR+9OO6/fEjgEMYAADGMAABuoZIMgEGQMYwAAGMIABDGAAAwsGhLEIwxNX/ROXDGWIAQxgAAMYwEDXDPw/oCpQCr7kz04AAAAASUVORK5CYII=;" vertex="1" parent="1">
          <mxGeometry x="230" y="486" width="47" height="47" as="geometry" />
        </mxCell>
        <mxCell id="rkqLrL7HtzT2ZyTlWoy1-48" value="" style="shape=flexArrow;endArrow=classic;html=1;rounded=0;" edge="1" parent="1">
          <mxGeometry width="50" height="50" relative="1" as="geometry">
            <mxPoint x="253.26" y="432" as="sourcePoint" />
            <mxPoint x="253.26" y="298" as="targetPoint" />
          </mxGeometry>
        </mxCell>
        <mxCell id="rkqLrL7HtzT2ZyTlWoy1-50" value="&lt;b&gt;Outcomes:&lt;br&gt;&lt;br&gt;&lt;/b&gt;&lt;div style=&quot;text-align: left;&quot;&gt;&lt;b&gt;1. All content is available&lt;/b&gt;&lt;/div&gt;&lt;div style=&quot;text-align: left;&quot;&gt;&lt;b&gt;2. Create VMs using gathered information&lt;/b&gt;&lt;/div&gt;&lt;div style=&quot;text-align: left;&quot;&gt;&lt;b&gt;3. Deploy using either pipelines or local machine&lt;/b&gt;&lt;/div&gt;" style="text;html=1;strokeColor=none;fillColor=none;align=center;verticalAlign=middle;whiteSpace=wrap;rounded=0;" vertex="1" parent="1">
          <mxGeometry x="116" y="180" width="285" height="30" as="geometry" />
        </mxCell>
        <mxCell id="rkqLrL7HtzT2ZyTlWoy1-51" value="" style="rounded=0;whiteSpace=wrap;html=1;fillColor=none;dashed=1;dashPattern=1 1;" vertex="1" parent="1">
          <mxGeometry x="98.5" y="135" width="320" height="120" as="geometry" />
        </mxCell>
      </root>
    </mxGraphModel>
  </diagram>
</mxfile>
